{"title":"Dr Seuss The Lorax 2012 TS NEW SOURCE AC3 XViD - INSPiRAL","uid":7296029,"size":1538376964,"categoryP":"video","categoryS":"movies","magnet":"?xt=urn:btih:858f90f74b19898424aaf6fb03626b9555bf973b&amp;dn=Dr+Seuss+The+Lorax+2012+TS+NEW+SOURCE+AC3+XViD+-+INSPiRAL&amp;tr=udp%3A%2F%2Ftracker.openbittorrent.com%3A80&amp;tr=udp%3A%2F%2Fopen.demonii.com%3A1337&amp;tr=udp%3A%2F%2Ftracker.coppersurfer.tk%3A6969&amp;tr=udp%3A%2F%2Fexodus.desync.com%3A6969","seeders":2,"leechers":0,"uploader":"HeroMaster","files":-1,"time":1337887321,"description":"Dr Seuss The Lorax 2012 TS READNFO NEW SOURCE AC3 XViD - INSPiRAL\n\n\nIMDB: \n &lt;a href=&quot;\nhttp://www.imdb.com/title/tt1482459/&quot; rel=&quot;nofollow&quot; target=&quot;_NEW&quot;&gt;\nhttp://www.imdb.com/title/tt1482459/&lt;/a&gt;\n\n\nSOURCES:\n\nVIDEO -  russian camrip and Dr Seuss THANKS\nAUDIO -  ADTRG...plus 2 cam audios THANKS\nSUBS  - None Add\n\nSTATS:\n\nVideo\nID                               : 0\nFormat                           : MPEG-4 Visual\nFormat profile                   : Advanced Simple@L5\nFormat settings, BVOP            : 2\nFormat settings, QPel            : No\nFormat settings, GMC             : No warppoints\nFormat settings, Matrix          : Default (MPEG)\nMuxing mode                      : Packed bitstream\nCodec ID                         : XVID\nCodec ID/Hint                    : XviD\nDuration                         : 1h 19mn\nBit rate                         : 2 299 Kbps\nWidth                            : 640 pixels\nHeight                           : 372 pixels\nDisplay aspect ratio             : 16:9\nFrame rate                       : 30.000 fps\nColor space                      : YUV\nChroma subsampling               : 4:2:0\nBit depth                        : 8 bits\nScan type                        : Progressive\nCompression mode                 : Lossy\nBits/(Pixel*Frame)               : 0.322\nStream size                      : 1.28 GiB (92%)\nWriting library                  : XviD 64\n\nAudio\nID                               : 1\nFormat                           : AC-3\nFormat/Info                      : Audio Coding 3\nMode extension                   : CM (complete main)\nCodec ID                         : 2000\nDuration                         : 1h 19mn\nBit rate mode                    : Constant\nBit rate                         : 192 Kbps\nChannel(s)                       : 2 channels\nChannel positions                : Front: L R\nSampling rate                    : 48.0 KHz\nBit depth                        : 16 bits\nCompression mode                 : Lossy\nStream size                      : 110 MiB (8%)\nAlignment                        : Aligned on interleaves\nInterleave, duration             : 33 ms (1.00 video frame)\nInterleave, preload duration     : 512 ms\n\n\nPoster:\n\n &lt;a href=&quot;\nhttp://i.imgur.com/CKCNv.jpg&quot; rel=&quot;nofollow&quot; target=&quot;_NEW&quot;&gt;\nhttp://i.imgur.com/CKCNv.jpg&lt;/a&gt;\n\n\nScreenshots:\n\n &lt;a href=&quot;\nhttp://i.imgur.com/VwZ3a.jpg&quot; rel=&quot;nofollow&quot; target=&quot;_NEW&quot;&gt;\nhttp://i.imgur.com/VwZ3a.jpg&lt;/a&gt;\n\n\nENJOY!","torrent":{"xt":"urn:btih:858f90f74b19898424aaf6fb03626b9555bf973b","amp;dn":"Dr+Seuss+The+Lorax+2012+TS+NEW+SOURCE+AC3+XViD+-+INSPiRAL","amp;tr":["udp%3A%2F%2Ftracker.openbittorrent.com%3A80","udp%3A%2F%2Fopen.demonii.com%3A1337","udp%3A%2F%2Ftracker.coppersurfer.tk%3A6969","udp%3A%2F%2Fexodus.desync.com%3A6969"],"infoHash":"858f90f74b19898424aaf6fb03626b9555bf973b","infoHashBuffer":{"type":"Buffer","data":[133,143,144,247,75,25,137,132,36,170,246,251,3,98,107,149,85,191,151,59]},"announce":[],"urlList":[]}}